<svg xmlns="http://www.w3.org/2000/svg" viewBox="0 0 339.91 207.53"><title>geni-logo-web</title><path d="M244.55,207.53H216.36a8.5,8.5,0,0,1,0-17h28.19a8.5,8.5,0,0,1,0,17Z" style="fill:#fff;fill-rule:evenodd"/><path d="M251.9,184H210.36a8.51,8.51,0,0,1,0-17H251.9a8.51,8.51,0,0,1,0,17Z" style="fill:#fff;fill-rule:evenodd"/><path d="M268.19,147.5a8.86,8.86,0,0,1-5.41,2.07,7.17,7.17,0,0,1-5.41-2.07,7.62,7.62,0,0,1,0-10.57,37.35,37.35,0,0,0,0-52.56,37.16,37.16,0,0,0-52.55,52.56,7.47,7.47,0,0,1-10.56,10.57,52.16,52.16,0,1,1,73.93,0Z" style="fill:#fff;fill-rule:evenodd"/><path d="M331.55,112H303.36a8.51,8.51,0,0,1,0-17h28.19a8.51,8.51,0,0,1,0,17Z" style="fill:#fff;fill-rule:evenodd"/><path d="M239,8.36V36.55a8.51,8.51,0,0,1-17,0V8.36a8.51,8.51,0,0,1,17,0Z" style="fill:#fff;fill-rule:evenodd"/><path d="M305.87,43.94,285.94,63.87a8.51,8.51,0,0,1-12-12l19.93-19.93a8.51,8.51,0,0,1,12,12Z" style="fill:#fff;fill-rule:evenodd"/><path d="M181.87,51.84,161.94,31.91a8.51,8.51,0,0,0-12,12l19.93,19.93a8.51,8.51,0,0,0,12-12Z" style="fill:#fff;fill-rule:evenodd"/><text transform="translate(216 167)" style="font-size:84px;fill:#03dcbc;font-family:AvenirNext-Heavy, Avenir Next;font-weight:800">I</text><text transform="translate(0 167)" style="font-size:84px;fill:#03dcbc;font-family:AvenirNext-Heavy, Avenir Next;font-weight:800">Gen</text></svg>